<svg width="38" height="89" viewBox="0 0 38 89" fill="none" xmlns="http://www.w3.org/2000/svg">
<path d="M12.8318 6.56924C11.68 6.53839 10.3054 6.34128 9.35581 5.47913C9.00444 5.2066 8.70791 4.88779 8.47138 4.52442C8.0223 3.84224 7.75834 3.02637 7.58694 2.2962C7.57152 2.2225 7.55438 2.14708 7.53724 2.07166C7.45668 1.68258 7.40183 1.32607 7.36755 1.04154C7.31784 0.630175 7.30584 0.36793 7.30584 0.36793C7.51495 0.306225 7.62465 0.277087 7.75834 0.239379C7.92975 0.196528 8.144 0.15025 8.39253 0.110827C8.51937 0.0936873 8.65306 0.0748331 8.7919 0.0542649C8.91702 0.0422668 9.04729 0.0302687 9.18098 0.0182705C9.93686 -0.03315 10.8453 0.0131285 11.7177 0.297655C12.1771 0.450203 12.633 0.659313 13.0307 0.96955C14.1191 1.94483 14.5853 3.40345 14.7395 4.54842C14.755 4.6804 14.7687 4.81066 14.7841 4.93578C14.7927 5.07633 14.8012 5.21003 14.8098 5.33686C14.815 5.4637 14.9692 5.71395 15.156 5.99676C15.324 6.295 15.5108 6.62752 15.6463 6.8692C15.8502 7.25314 15.8879 7.42968 15.8759 7.51024C15.8536 7.64907 15.5194 7.35769 15.1389 7.06974C14.7635 6.77493 14.3247 6.50068 14.1071 6.52811C13.8208 6.5521 13.4609 6.57096 13.0632 6.57096C12.9861 6.57096 12.9107 6.56924 12.8335 6.56753L12.8318 6.56924Z" fill="white"/>
<path d="M16.4752 12.4414C16.1118 12.606 15.709 12.7637 15.2891 12.8837C14.5247 13.0962 13.6608 13.223 12.8381 13.0773C12.4044 12.9951 12.0153 12.8357 11.6691 12.6283C11.0161 12.2358 10.5104 11.6667 10.1351 11.1216C9.79397 10.6983 9.61743 10.4446 9.48373 10.2372C9.29176 9.93897 9.19063 9.735 9.19063 9.735C9.34661 9.58074 9.4306 9.50361 9.53344 9.40591C9.66542 9.28593 9.82996 9.14195 10.0254 8.98598C10.1248 8.90885 10.231 8.82829 10.3425 8.74259C10.4436 8.67231 10.5481 8.59861 10.6544 8.52319C11.2697 8.1084 12.0342 7.70218 12.8741 7.52564C13.3197 7.43137 13.7911 7.39537 14.2247 7.49993C15.0594 7.67476 15.7965 8.1821 16.3981 8.77001C16.7237 9.08711 17.0083 9.42819 17.2517 9.75557C17.3288 9.86527 17.4042 9.97154 17.4779 10.0744C17.5568 10.1944 17.6373 10.3006 17.6904 10.4223C17.8036 10.6537 18.6434 11.1114 19.1011 11.4182C19.4627 11.6598 19.5844 11.8004 19.6136 11.8792C19.6616 12.0146 19.2245 11.9152 18.7497 11.8501C18.2749 11.7833 17.7607 11.7507 17.5876 11.8552C17.3476 12.0009 17.0374 12.174 16.6843 12.3455C16.6158 12.378 16.5472 12.4089 16.4786 12.4414H16.4752Z" fill="white"/>
<path d="M21.1157 19.9266C20.7129 20.0088 20.2827 20.0705 19.8233 20.1031C18.9252 20.1734 17.9722 20.1168 17.1375 19.7757C16.697 19.5958 16.3216 19.3472 15.9976 19.0593C15.3875 18.5159 14.9847 17.8132 14.5939 17.2441C14.5579 17.1841 14.5219 17.1241 14.4876 17.0624C14.3076 16.7471 14.1688 16.4505 14.0677 16.2106C13.922 15.8661 13.8534 15.6381 13.8534 15.6381C14.0454 15.5164 14.1465 15.4547 14.2699 15.3793C14.4293 15.2867 14.6299 15.1753 14.8613 15.0605C14.9795 15.0039 15.1046 14.9439 15.2366 14.8822C15.3549 14.8325 15.4783 14.7794 15.6034 14.7262C16.3216 14.4383 17.1992 14.1932 18.111 14.1983C18.5944 14.2017 19.088 14.2737 19.5731 14.4451C20.4969 14.7691 21.1294 15.4975 21.671 16.2311C21.9453 16.6202 22.175 17.0213 22.3652 17.4018C22.4269 17.5321 22.4869 17.6572 22.5435 17.7789C22.6035 17.9177 22.66 18.0514 22.7132 18.1766C22.8434 18.4097 23.6199 19.0833 24.0484 19.5032C24.3843 19.8357 24.4855 20.0071 24.5009 20.0945C24.5266 20.2454 24.0861 20.038 23.601 19.858C23.1142 19.6763 22.5829 19.5221 22.3824 19.5889C22.1047 19.6815 21.7499 19.7843 21.3488 19.8751C21.2717 19.8923 21.1945 19.9094 21.1157 19.9249V19.9266Z" fill="white"/>
<path d="M24.3634 28.9406C23.9366 28.92 23.4739 28.8737 23.0059 28.7897C22.1112 28.6149 21.0862 28.3252 20.2669 27.7699C19.8367 27.4802 19.4853 27.1374 19.1974 26.7672C18.9249 26.4176 18.7089 26.0456 18.5375 25.6702C18.3695 25.2932 18.1621 24.9469 18.0387 24.6041C18.0113 24.5356 17.9856 24.4653 17.9599 24.3967C17.8279 24.0351 17.7353 23.706 17.6719 23.442C17.5811 23.0598 17.5519 22.8147 17.5519 22.8147C17.7748 22.7358 17.8913 22.6964 18.037 22.6484C18.2204 22.5902 18.4501 22.525 18.7158 22.4616C18.8494 22.4325 18.9917 22.4016 19.1408 22.369C19.2745 22.345 19.4116 22.321 19.5539 22.2971C20.3612 22.1736 21.3262 22.1325 22.286 22.357C22.7951 22.4753 23.3007 22.669 23.7807 22.9604C24.6822 23.526 25.2324 24.4344 25.6678 25.3291C25.8821 25.7868 26.05 26.2479 26.1803 26.6781C26.2231 26.8255 26.2626 26.9695 26.302 27.1083C26.3483 27.2643 26.3774 27.4168 26.3894 27.5642C26.4237 27.8522 27.1419 28.7418 27.5138 29.2885C27.8069 29.7187 27.884 29.9227 27.8857 30.0187C27.8857 30.1798 27.4607 29.849 26.9825 29.5336C26.5042 29.2165 25.9746 28.9183 25.7518 28.9337C25.445 28.9543 25.0542 28.968 24.6171 28.956C24.5348 28.9526 24.4509 28.9492 24.3652 28.9457L24.3634 28.9406Z" fill="white"/>
<path d="M25.6383 39.4047C25.1841 39.2555 24.6922 39.067 24.2037 38.8339C23.2987 38.402 22.3954 37.8209 21.739 37.0342C21.3602 36.6177 21.0328 36.172 20.7963 35.7161C20.3403 34.8557 20.1432 33.9575 20.0575 33.1828C20.0404 33.1039 20.0249 33.0268 20.0095 32.9514C19.9307 32.552 19.8895 32.1938 19.869 31.9093C19.8381 31.4996 19.8484 31.2425 19.8484 31.2425C20.0952 31.2185 20.2255 31.21 20.3849 31.198C20.5871 31.1877 20.8391 31.1791 21.1271 31.1825C21.2727 31.1877 21.427 31.1928 21.5898 31.198C21.7338 31.2082 21.8829 31.2202 22.0355 31.2322C22.9028 31.3179 23.9226 31.5288 24.891 32.0155C25.4241 32.2692 25.8423 32.6172 26.2554 33.0542C27.0096 33.8753 27.4775 34.9311 27.762 35.9578C27.942 36.5097 27.9386 37.0633 27.9677 37.5655C27.9694 37.7318 27.9711 37.8929 27.9728 38.0489C27.9694 38.2237 27.9643 38.3917 27.9608 38.5477C27.9471 38.8562 28.5402 39.9926 28.8298 40.673C29.0647 41.2095 29.0458 41.4443 29.0338 41.5438C28.991 41.7117 28.9053 41.5969 28.7733 41.4186C28.6345 41.2421 28.4716 41.0073 28.2402 40.7742C27.7997 40.3045 27.3027 39.84 27.0713 39.792C26.749 39.7235 26.3445 39.6258 25.8955 39.4869C25.8115 39.4595 25.7241 39.4321 25.6366 39.4047H25.6383Z" fill="white"/>
<path d="M24.2983 50.5458C23.9229 50.2852 23.5287 49.9836 23.143 49.6459C22.3477 48.9243 21.417 48.0022 20.8685 46.9361C20.5823 46.3927 20.3937 45.8442 20.2806 45.3077C20.1949 44.8021 20.0938 44.2982 20.0355 43.8183C19.9824 43.3383 19.9772 42.8824 19.9978 42.4693C20.0029 42.3836 20.0081 42.2996 20.0132 42.2174C20.0458 41.7837 20.1058 41.4049 20.1641 41.1067C20.2155 40.8924 20.2292 40.7193 20.2463 40.5993C20.5343 40.4588 20.6697 40.4828 20.8377 40.5153C21.0485 40.5582 21.309 40.6199 21.6055 40.7022C21.7547 40.7467 21.9124 40.7947 22.0786 40.8444C22.2277 40.8924 22.3717 40.9439 22.5225 41.0021C23.3676 41.3295 24.3308 41.8317 25.1673 42.6064C25.6095 43.0161 26.0191 43.5029 26.3551 44.0771C27.0681 45.2135 27.207 46.5127 27.1915 47.7125C27.1847 48.2713 27.1401 48.806 27.075 49.2945C27.0476 49.4728 27.0218 49.6442 26.9978 49.8087C26.9756 49.9973 26.9053 50.1653 26.8607 50.3281C26.7613 50.6452 27.039 52.0061 27.1401 52.8031C27.2207 53.4322 27.1984 53.691 27.1572 53.7921C27.0835 53.9618 26.8333 53.3533 26.5248 52.7346C26.2163 52.1124 25.846 51.4816 25.6283 51.3651C25.325 51.2005 24.9479 50.9794 24.5365 50.7052C24.4594 50.652 24.3805 50.5989 24.3 50.5441L24.2983 50.5458Z" fill="white"/>
<path d="M20.1438 61.1915C19.8593 60.8419 19.5627 60.4528 19.2782 60.0311C18.5686 58.9822 17.9139 57.7446 17.6396 56.43C17.5333 55.8027 17.4151 55.1496 17.3979 54.5429C17.3397 53.3893 17.6105 52.3712 17.811 51.5108C17.8299 51.4216 17.8487 51.3342 17.8676 51.2468C17.9721 50.796 18.0938 50.4087 18.2001 50.1087C18.3561 49.6768 18.4812 49.4231 18.4812 49.4231C18.728 49.5362 18.8566 49.5979 19.016 49.6751C19.2148 49.7762 19.4599 49.9082 19.7359 50.0727C19.873 50.1584 20.0187 50.251 20.1712 50.347C20.3032 50.4378 20.4403 50.5338 20.5826 50.6332C21.3745 51.2074 22.2537 52.0027 22.9548 53.0602C23.3507 53.6259 23.5787 54.2309 23.7655 54.9217C23.9455 55.6296 24.0106 56.3666 23.9986 57.0916C23.9866 57.8183 23.9095 58.5382 23.6901 59.1724C23.5341 59.6901 23.3524 60.1786 23.1673 60.6225C23.0902 60.8007 23.0131 60.9721 22.9411 61.1384C22.8537 61.3218 22.7697 61.4966 22.6908 61.6612C22.6086 61.8223 22.5743 62.2919 22.5366 62.8336C22.4663 63.3598 22.3874 63.9545 22.3309 64.3796C22.2246 65.0618 22.1252 65.3292 22.0549 65.4217C21.9315 65.5777 21.863 64.8681 21.7378 64.1311C21.6144 63.3906 21.4327 62.6279 21.2493 62.4428C20.9922 62.1822 20.6957 61.8531 20.3409 61.4366C20.2758 61.3578 20.2089 61.2772 20.1421 61.1967L20.1438 61.1915Z" fill="white"/>
<path d="M12.6039 71.2305C12.4274 70.7763 12.2525 70.2758 12.0983 69.7445C11.7263 68.4658 11.4675 67.0226 11.5926 65.6103C11.6029 64.8767 11.7023 64.1945 11.8617 63.5671C12.0126 62.9758 12.2165 62.4342 12.4496 61.9423C12.693 61.4572 12.8542 60.9498 13.0821 60.5436C13.1284 60.4579 13.1712 60.3739 13.2141 60.2917C13.4489 59.8632 13.682 59.5049 13.8757 59.2324C14.1568 58.8382 14.3556 58.6171 14.3556 58.6171C14.5682 58.8005 14.6779 58.8999 14.815 59.0233C14.9847 59.181 15.1904 59.3849 15.4149 59.63C15.5263 59.7569 15.6446 59.8906 15.768 60.0328C15.8725 60.1631 15.9822 60.3002 16.0954 60.4408C16.7158 61.2498 17.3569 62.3142 17.7425 63.5997C17.9311 64.2699 18.1145 65.0463 18.0665 65.7937C17.9911 67.3328 17.4614 68.8789 16.7655 70.1507C16.4433 70.6512 16.1039 71.114 15.7731 71.527C15.6394 71.6882 15.5109 71.8441 15.3875 71.9932C15.2418 72.1578 15.1047 72.3138 14.9761 72.4595C14.8441 72.6017 14.659 73.0748 14.4585 73.6284C14.2648 74.1889 13.9734 74.7494 13.778 75.183C13.4523 75.8566 13.2672 76.1035 13.1661 76.1772C13.0547 76.2577 12.993 76.3023 12.993 76.3023C12.993 76.3023 13.1558 75.5481 13.2707 74.7511C13.3855 73.9489 13.4575 73.1142 13.3272 72.8623C13.1507 72.5143 12.9381 72.0618 12.7222 71.5339C12.6828 71.4345 12.6416 71.3316 12.6005 71.2271L12.6039 71.2305Z" fill="white"/>
<path d="M1.85155 79.6532C1.77099 79.0876 1.70929 78.4345 1.74528 77.7438C1.78642 76.993 1.88755 76.16 2.1635 75.2979C2.30234 74.8677 2.47374 74.4237 2.68457 73.9712C2.82169 73.7261 2.82168 73.565 2.88339 73.3713C2.9331 73.1845 2.98966 72.9994 3.04965 72.816C3.29475 72.0738 3.61185 71.4105 3.97008 70.8209C4.68996 69.7582 5.38414 68.752 6.06975 68.0373C6.14174 67.9636 6.2103 67.8916 6.27886 67.8213C6.64394 67.4562 6.98846 67.1614 7.26613 66.942C7.63122 66.589 7.86432 66.3918 7.86432 66.3918C8.02715 66.6438 8.10943 66.7775 8.21398 66.9455C8.33911 67.1597 8.49165 67.4305 8.65106 67.7528C8.72819 67.9173 8.81046 68.0922 8.89788 68.2773C8.96986 68.4401 9.05042 68.6218 9.11213 68.7949C9.48064 69.7907 9.79088 71.0523 9.77374 72.4715C9.76517 73.2222 9.66404 74.0175 9.43608 74.8351C8.94244 76.4017 7.90546 77.7129 6.87019 78.8408C6.41769 79.3464 5.8075 79.8435 5.3053 80.2565C5.12018 80.4142 4.94192 80.5685 4.76881 80.7142C4.56998 80.8736 4.38144 81.0261 4.2049 81.1684C3.84495 81.4529 3.01537 83.1721 2.58515 84.1131C2.2492 84.8758 2.07095 85.1483 1.96639 85.2375C1.85327 85.3334 1.79156 85.3849 1.79156 85.3849C1.79156 85.3849 1.92354 84.5621 2.06923 83.664C2.22349 82.7761 2.3949 81.794 2.29891 81.5078C2.16522 81.117 2.02295 80.613 1.91154 80.0046C1.89269 79.8897 1.87383 79.7715 1.85327 79.6498L1.85155 79.6532Z" fill="white"/>
<path d="M22.7147 11.3051C23.4501 10.4258 24.1734 9.15227 24.0243 7.65594C23.9728 7.13831 23.822 6.63096 23.6095 6.14932C23.2187 5.2306 22.4731 4.51757 21.8492 3.91767C21.784 3.85939 21.7172 3.7994 21.6521 3.74112C21.3075 3.43946 20.9853 3.19092 20.7248 3.00238C20.3494 2.73157 20.1026 2.58588 20.1026 2.58588C19.9552 2.74699 19.8798 2.83441 19.7872 2.94068C19.6741 3.0778 19.537 3.25091 19.3896 3.45488C19.3176 3.55944 19.2404 3.67085 19.1616 3.78569C19.0947 3.89196 19.0262 3.99994 18.9559 4.11307C18.5703 4.75754 18.1966 5.55798 18.0389 6.41328C17.9549 6.86749 17.9309 7.33713 17.9978 7.8102C18.0886 8.49923 18.392 9.10428 18.7297 9.68705C19.0468 10.2852 19.4513 10.8166 19.8489 11.2605C19.9432 11.3616 20.0357 11.4593 20.1232 11.5553C20.2277 11.6582 20.3271 11.7576 20.4214 11.8519C20.6134 12.0353 20.8173 12.9985 20.9682 13.5213C21.0984 13.9327 21.1721 14.1006 21.2321 14.1589C21.3367 14.2549 21.4292 13.7938 21.4961 13.3293C21.5766 12.858 21.6881 12.3438 21.8389 12.2084C22.0497 12.0215 22.3051 11.7747 22.5673 11.4782C22.617 11.4199 22.6668 11.3616 22.7165 11.3051H22.7147Z" fill="white"/>
<path d="M27.7028 19.8889C28.6146 19.0918 29.5916 17.8629 29.7373 16.2123C29.7784 15.6467 29.7613 15.0485 29.5813 14.5171C29.2779 13.4939 28.7346 12.5306 28.2067 11.7644C28.1518 11.6873 28.0987 11.6102 28.0439 11.533C27.7576 11.1354 27.4834 10.7994 27.2588 10.5423C27.0977 10.3572 26.9623 10.2098 26.8663 10.1138C26.7601 10.023 26.7018 9.97327 26.7018 9.97327C26.527 10.1172 26.4378 10.1944 26.3264 10.2904C26.1893 10.4138 26.0247 10.5715 25.8448 10.76C25.7539 10.8577 25.6597 10.9623 25.5585 11.0702C25.4728 11.1714 25.3837 11.2759 25.2929 11.3822C24.7889 11.9992 24.2679 12.7877 23.9456 13.6807C23.7742 14.1538 23.6611 14.6577 23.6354 15.1822C23.5651 16.6991 24.297 18.1011 24.8541 19.253C24.9278 19.3815 24.998 19.5066 25.0666 19.6266C25.1489 19.7586 25.2277 19.8871 25.3031 20.0071C25.4557 20.2454 25.4608 21.3218 25.502 21.9131C25.5345 22.3845 25.6048 22.5661 25.6511 22.6416C25.7351 22.7667 25.7779 22.6501 25.8448 22.4702C25.9031 22.297 25.9836 22.0605 26.0676 21.8137C26.2459 21.3235 26.4618 20.7939 26.6401 20.679C26.8886 20.5213 27.1937 20.3088 27.5142 20.0431C27.5759 19.9917 27.6376 19.9386 27.6976 19.8871L27.7028 19.8889Z" fill="white"/>
<path d="M31.1905 30.2141C32.284 29.5457 33.537 28.4247 34.0426 26.6695C34.2089 26.0662 34.31 25.42 34.274 24.7961C34.1849 23.6237 33.8421 22.4651 33.4718 21.5223C33.4324 21.4246 33.393 21.3304 33.357 21.2361C33.153 20.7442 32.9473 20.3225 32.7759 19.9969C32.6611 19.7586 32.5274 19.5838 32.4417 19.4604C32.3543 19.3404 32.3046 19.2736 32.3046 19.2736C32.1006 19.3935 31.9961 19.4604 31.8675 19.5409C31.7064 19.6472 31.5093 19.7861 31.2916 19.954C31.1836 20.0414 31.0705 20.134 30.9505 20.23C30.8477 20.3191 30.7414 20.4134 30.6317 20.5094C30.0112 21.0733 29.3171 21.8257 28.808 22.7273C28.5372 23.2055 28.3161 23.7266 28.1789 24.2888C27.9818 25.1012 27.9801 25.9274 28.0915 26.7107C28.1515 27.5094 28.2835 28.279 28.472 28.9423C28.5166 29.0949 28.5612 29.244 28.6023 29.3863C28.6554 29.5457 28.7069 29.6999 28.7549 29.8422C28.844 30.1319 28.6469 31.2802 28.5029 31.9299C28.3846 32.4492 28.3863 32.6635 28.4189 32.7526C28.4755 32.9034 28.7549 32.4424 29.0822 31.9453C29.4285 31.4482 29.7387 30.9306 29.9512 30.8432C30.2358 30.7249 30.5906 30.5604 30.9728 30.3427C31.0465 30.2998 31.1185 30.2553 31.1922 30.2124L31.1905 30.2141Z" fill="white"/>
<path d="M32.3786 42.238C33.0334 41.998 33.7652 41.6483 34.4646 41.1341C35.1365 40.6199 35.7364 39.9395 36.1974 39.055C36.5145 38.4414 36.7356 37.7729 36.8847 37.0908C37.2104 35.7984 37.0956 34.482 36.9327 33.3885C36.9156 33.2754 36.8967 33.164 36.8796 33.056C36.7836 32.4835 36.6705 31.9847 36.5694 31.5973C36.4254 31.0369 36.3088 30.7061 36.3088 30.7061C36.074 30.7952 35.9506 30.8449 35.7998 30.9066C35.6095 30.9889 35.3764 31.0986 35.1125 31.2357C34.9805 31.3077 34.8399 31.3848 34.6942 31.4654C34.5657 31.5425 34.4337 31.6213 34.2966 31.7036C33.5304 32.1835 32.67 32.8469 31.9484 33.7073C31.5662 34.1632 31.2251 34.6757 30.9577 35.2499C30.6063 36.0778 30.3115 36.9674 30.1641 37.8364C30.0167 38.7037 29.991 39.5521 30.0218 40.2994C30.0321 40.4725 30.0424 40.6405 30.0527 40.8016C30.0732 40.9833 30.0664 41.1581 30.0715 41.321C30.0784 41.6483 29.4579 42.8242 29.1545 43.4823C28.9129 44.0068 28.8649 44.2348 28.8769 44.3359C28.8991 44.509 29.2899 44.0805 29.7407 43.6246C30.1915 43.1721 30.7006 42.6887 30.9337 42.6425C31.2559 42.5773 31.6639 42.4796 32.1181 42.3288C32.2038 42.2997 32.2912 42.2688 32.3803 42.238H32.3786Z" fill="white"/>
<path d="M30.5287 55.0691C31.9754 54.8531 33.8419 54.2138 35.352 52.5529C35.8953 51.9838 36.2793 51.3188 36.5861 50.6212C37.1774 49.3083 37.5151 47.8942 37.7019 46.703C37.7259 46.5795 37.731 46.4579 37.7379 46.3379C37.7739 45.7054 37.7739 45.1501 37.7636 44.713C37.7482 44.0839 37.7053 43.7051 37.7053 43.7051C37.4465 43.7514 37.3094 43.7788 37.1414 43.8148C36.9289 43.8628 36.6666 43.9314 36.3667 44.0222C36.2159 44.0719 36.0565 44.1251 35.8885 44.1799C35.7411 44.2348 35.5885 44.2913 35.4291 44.3513C34.5413 44.7027 33.5129 45.2272 32.5821 45.9899C32.0525 46.3893 31.5383 46.8555 31.0807 47.4023C30.4191 48.1924 29.9357 49.0786 29.5826 49.9664C29.2364 50.856 28.861 51.7199 28.6639 52.5066C28.6159 52.6883 28.5713 52.8648 28.5268 53.0345C28.4839 53.2282 28.4428 53.4116 28.4034 53.5847C28.3314 53.9344 27.4452 55.0468 26.8728 55.6398C26.4494 56.1232 26.3243 56.346 26.302 56.4523C26.2677 56.634 26.8196 56.2946 27.4247 55.9209C28.0331 55.5559 28.7273 55.1788 28.9639 55.1771C29.3084 55.1805 29.7454 55.1668 30.2425 55.1068C30.3368 55.0948 30.4328 55.0811 30.5305 55.0674L30.5287 55.0691Z" fill="white"/>
<path d="M25.3524 67.3346C26.146 67.3911 27.0801 67.3637 28.0845 67.1529C28.5868 67.0466 29.1061 66.8941 29.6323 66.6832C30.1414 66.4638 30.6281 66.169 31.1201 65.8091C31.7971 65.3103 32.4142 64.707 32.9644 64.0591C34.0545 62.8541 34.7127 61.4058 35.1943 60.1751C35.244 60.0466 35.2903 59.9214 35.3383 59.7997C35.5799 59.1501 35.7599 58.5708 35.8902 58.1149C36.0907 57.4618 36.125 57.0436 36.125 57.0436C35.849 57.0402 35.7034 57.0436 35.5234 57.047C35.2937 57.0556 35.016 57.0779 34.6784 57.1122C34.507 57.1327 34.327 57.155 34.135 57.1773C33.9653 57.2047 33.7888 57.2321 33.6071 57.2613C32.577 57.4447 31.348 57.7738 30.1362 58.3668C29.4952 58.6805 28.8593 59.0678 28.2594 59.5512C27.4161 60.2591 26.5454 61.027 25.906 61.8651C25.2239 62.6827 24.7594 63.5774 24.2554 64.311C24.1457 64.4841 24.0395 64.6521 23.9366 64.8132C23.8269 64.9983 23.7224 65.1749 23.6247 65.3412C23.4344 65.6771 22.1181 66.5804 21.4273 67.0997C20.884 67.5214 20.6337 67.6825 20.5892 67.7939C20.4932 67.967 20.6646 67.9139 20.9302 67.8333C21.1942 67.7511 21.5713 67.6516 21.9175 67.5214C22.6323 67.2746 23.4241 67.0226 23.6812 67.0826C24.0395 67.1666 24.5005 67.2557 25.0405 67.3106C25.1433 67.3191 25.2479 67.3294 25.3541 67.338L25.3524 67.3346Z" fill="white"/>
<path d="M16.1553 78.8905C17.7579 79.4338 20.1267 79.8435 22.5915 78.8596C23.457 78.5357 24.2935 78.09 25.0768 77.5793C26.5354 76.5988 27.653 75.2688 28.57 74.1581C28.6625 74.0398 28.7516 73.925 28.8391 73.8136C29.0687 73.5136 29.2778 73.2291 29.463 72.9651C29.6344 72.6926 29.7732 72.4321 29.8983 72.2075C30.2531 71.5545 30.4365 71.1448 30.4365 71.1448C30.152 71.0763 30.0029 71.0454 29.8143 71.0043C29.5761 70.9597 29.2761 70.9117 28.9265 70.8706C28.7482 70.8535 28.5597 70.8363 28.3626 70.8158C28.1843 70.8055 28.0009 70.7952 27.8089 70.7849C27.2605 70.7609 26.6777 70.7798 26.0144 70.8158C25.3493 70.8517 24.6431 70.9323 23.9198 71.078C23.1554 71.234 22.3721 71.4619 21.5939 71.7962C21.03 72.0344 20.5072 72.3258 19.9964 72.6326C19.4548 72.9137 18.9458 73.2239 18.4675 73.5496C17.5111 74.2009 16.6815 74.9191 15.9994 75.5859C15.828 75.7281 15.6634 75.867 15.5057 75.9972C15.3309 76.1515 15.1663 76.2972 15.0104 76.4343C14.7018 76.7154 13.0444 77.2485 12.1582 77.5707C11.4606 77.8398 11.1847 77.9701 11.0853 78.0472C10.9841 78.1397 10.9276 78.1895 10.9276 78.1895C10.955 78.2649 13.9802 77.9323 14.4996 78.1757C14.8424 78.3574 15.2932 78.5734 15.8348 78.7756C15.9377 78.8116 16.0439 78.8493 16.1519 78.8888L16.1553 78.8905Z" fill="white"/>
<path d="M5.42493 87.757C7.03611 88.3398 9.20777 88.926 11.2509 88.9997C11.5971 89.0014 11.9331 89.0049 12.2621 89.0066C12.4215 89.0031 12.5775 88.9929 12.7284 88.9809C12.7866 88.9877 12.9135 88.9414 13.0335 88.8986C13.1517 88.8557 13.2683 88.8129 13.3865 88.77C15.1571 88.1067 16.7991 87.1606 18.0932 86.2881C18.2321 86.2024 18.3469 86.0945 18.4686 85.9985C19.0976 85.4774 19.6256 84.9941 20.0284 84.6084C20.6094 84.0496 20.9316 83.6914 20.9316 83.6914C20.6557 83.5508 20.5083 83.4806 20.3249 83.3914C20.0901 83.2852 19.7901 83.1601 19.437 83.0281C19.257 82.9647 19.0651 82.8978 18.8628 82.8275C18.6811 82.771 18.4909 82.7127 18.2938 82.651C17.1608 82.3133 15.7913 82.0768 14.2041 81.9911C13.354 81.9345 12.461 81.9448 11.5423 82.0597C8.82211 82.4762 6.66074 83.292 5.10441 84.4901C4.92444 84.6187 4.7616 84.7592 4.6022 84.8895C4.42566 85.042 4.2594 85.186 4.10171 85.3214C3.79661 85.5854 2.11173 86.1819 1.19131 86.6549C0.457708 87.0149 0.212605 87.2411 0.130331 87.3474C0.0463448 87.4691 6.67572e-05 87.5359 6.67572e-05 87.5359C6.67572e-05 87.5359 0.797083 87.3011 1.65923 87.1537C2.53338 87.0097 3.43324 86.9257 3.70577 87.056C4.076 87.2257 4.55249 87.4297 5.10269 87.6371C5.20725 87.6765 5.31352 87.7142 5.42322 87.7553L5.42493 87.757Z" fill="white"/>
</svg>
