<svg width="38" height="89" viewBox="0 0 38 89" fill="none" xmlns="http://www.w3.org/2000/svg">
<path d="M24.9377 6.56924C26.0895 6.53839 27.4642 6.34128 28.4137 5.47913C28.7651 5.2066 29.0616 4.88779 29.2982 4.52442C29.7472 3.84224 30.0112 3.02637 30.1826 2.2962C30.198 2.2225 30.2152 2.14708 30.2323 2.07166C30.3129 1.68258 30.3677 1.32607 30.402 1.04154C30.4517 0.630175 30.4637 0.36793 30.4637 0.36793C30.2546 0.306225 30.1449 0.277087 30.0112 0.239379C29.8398 0.196528 29.6255 0.15025 29.377 0.110827C29.2502 0.0936873 29.1165 0.0748331 28.9776 0.0542649C28.8525 0.0422668 28.7222 0.0302687 28.5886 0.0182705C27.8327 -0.03315 26.9242 0.0131285 26.0518 0.297655C25.5925 0.450203 25.1365 0.659313 24.7389 0.96955C23.6505 1.94483 23.1843 3.40345 23.03 4.54842C23.0146 4.6804 23.0009 4.81066 22.9854 4.93578C22.9769 5.07633 22.9683 5.21003 22.9597 5.33686C22.9546 5.4637 22.8003 5.71395 22.6135 5.99676C22.4455 6.295 22.2587 6.62752 22.1233 6.8692C21.9193 7.25314 21.8816 7.42968 21.8936 7.51024C21.9159 7.64907 22.2501 7.35769 22.6306 7.06974C23.006 6.77493 23.4448 6.50068 23.6625 6.52811C23.9487 6.5521 24.3087 6.57096 24.7063 6.57096C24.7834 6.57096 24.8589 6.56924 24.936 6.56753L24.9377 6.56924Z" fill="white"/>
<path d="M21.2943 12.4414C21.6577 12.606 22.0605 12.7637 22.4804 12.8837C23.2449 13.0962 24.1087 13.223 24.9315 13.0773C25.3651 12.9951 25.7542 12.8357 26.1004 12.6283C26.7535 12.2358 27.2591 11.6667 27.6345 11.1216C27.9756 10.6983 28.1521 10.4446 28.2858 10.2372C28.4778 9.93897 28.5789 9.735 28.5789 9.735C28.4229 9.58074 28.3389 9.50361 28.2361 9.40591C28.1041 9.28593 27.9396 9.14195 27.7442 8.98598C27.6448 8.90885 27.5385 8.82829 27.4271 8.74259C27.3259 8.67231 27.2214 8.59861 27.1151 8.52319C26.4998 8.1084 25.7353 7.70218 24.8955 7.52564C24.4498 7.43137 23.9785 7.39537 23.5448 7.49993C22.7101 7.67476 21.9731 8.1821 21.3715 8.77001C21.0458 9.08711 20.7613 9.42819 20.5179 9.75557C20.4407 9.86527 20.3653 9.97154 20.2916 10.0744C20.2128 10.1944 20.1322 10.3006 20.0791 10.4223C19.966 10.6537 19.1261 11.1114 18.6685 11.4182C18.3068 11.6598 18.1851 11.8004 18.156 11.8792C18.108 12.0146 18.545 11.9152 19.0198 11.8501C19.4946 11.7833 20.0088 11.7507 20.1819 11.8552C20.4219 12.0009 20.7321 12.174 21.0852 12.3455C21.1538 12.378 21.2223 12.4089 21.2909 12.4414H21.2943Z" fill="white"/>
<path d="M16.6538 19.9266C17.0566 20.0088 17.4868 20.0705 17.9462 20.1031C18.8443 20.1734 19.7973 20.1168 20.6321 19.7757C21.0726 19.5958 21.4479 19.3472 21.7719 19.0593C22.3821 18.5159 22.7849 17.8132 23.1757 17.2441C23.2117 17.1841 23.2477 17.1241 23.2819 17.0624C23.4619 16.7471 23.6007 16.4505 23.7019 16.2106C23.8476 15.8661 23.9161 15.6381 23.9161 15.6381C23.7242 15.5164 23.623 15.4547 23.4996 15.3793C23.3402 15.2867 23.1397 15.1753 22.9083 15.0605C22.79 15.0039 22.6649 14.9439 22.5329 14.8822C22.4146 14.8325 22.2912 14.7794 22.1661 14.7262C21.4479 14.4383 20.5704 14.1932 19.6585 14.1983C19.1752 14.2017 18.6815 14.2737 18.1964 14.4451C17.2726 14.7691 16.6401 15.4975 16.0985 16.2311C15.8242 16.6202 15.5946 17.0213 15.4043 17.4018C15.3426 17.5321 15.2826 17.6572 15.2261 17.7789C15.1661 17.9177 15.1095 18.0514 15.0564 18.1766C14.9261 18.4097 14.1497 19.0833 13.7212 19.5032C13.3852 19.8357 13.2841 20.0071 13.2687 20.0945C13.2429 20.2454 13.6834 20.038 14.1685 19.858C14.6553 19.6763 15.1866 19.5221 15.3872 19.5889C15.6648 19.6815 16.0196 19.7843 16.4207 19.8751C16.4979 19.8923 16.575 19.9094 16.6538 19.9249V19.9266Z" fill="white"/>
<path d="M13.4061 28.9406C13.8329 28.92 14.2957 28.8737 14.7636 28.7897C15.6583 28.6149 16.6833 28.3252 17.5026 27.7699C17.9328 27.4802 18.2842 27.1374 18.5721 26.7672C18.8447 26.4176 19.0606 26.0456 19.232 25.6702C19.4 25.2932 19.6074 24.9469 19.7308 24.6041C19.7582 24.5356 19.7839 24.4653 19.8097 24.3967C19.9416 24.0351 20.0342 23.706 20.0976 23.442C20.1885 23.0598 20.2176 22.8147 20.2176 22.8147C19.9948 22.7358 19.8782 22.6964 19.7325 22.6484C19.5491 22.5902 19.3195 22.525 19.0538 22.4616C18.9201 22.4325 18.7778 22.4016 18.6287 22.369C18.495 22.345 18.3579 22.321 18.2156 22.2971C17.4083 22.1736 16.4433 22.1325 15.4835 22.357C14.9744 22.4753 14.4688 22.669 13.9889 22.9604C13.0873 23.526 12.5371 24.4344 12.1017 25.3291C11.8875 25.7868 11.7195 26.2479 11.5892 26.6781C11.5464 26.8255 11.507 26.9695 11.4675 27.1083C11.4213 27.2643 11.3921 27.4168 11.3801 27.5642C11.3458 27.8522 10.6277 28.7418 10.2557 29.2885C9.96263 29.7187 9.8855 29.9227 9.88379 30.0187C9.88379 30.1798 10.3089 29.849 10.7871 29.5336C11.2653 29.2165 11.7949 28.9183 12.0177 28.9337C12.3245 28.9543 12.7153 28.968 13.1524 28.956C13.2347 28.9526 13.3187 28.9492 13.4044 28.9457L13.4061 28.9406Z" fill="white"/>
<path d="M12.1312 39.4047C12.5854 39.2555 13.0773 39.067 13.5658 38.8339C14.4708 38.402 15.3741 37.8209 16.0306 37.0342C16.4094 36.6177 16.7367 36.172 16.9733 35.7161C17.4292 34.8557 17.6263 33.9575 17.712 33.1828C17.7292 33.1039 17.7446 33.0268 17.76 32.9514C17.8389 32.552 17.88 32.1938 17.9006 31.9093C17.9314 31.4996 17.9211 31.2425 17.9211 31.2425C17.6743 31.2185 17.544 31.21 17.3846 31.198C17.1824 31.1877 16.9304 31.1791 16.6425 31.1825C16.4968 31.1877 16.3425 31.1928 16.1797 31.198C16.0357 31.2082 15.8866 31.2202 15.734 31.2322C14.8668 31.3179 13.8469 31.5288 12.8785 32.0155C12.3454 32.2692 11.9272 32.6172 11.5141 33.0542C10.76 33.8753 10.292 34.9311 10.0075 35.9578C9.82754 36.5097 9.83097 37.0633 9.80183 37.5655C9.80012 37.7318 9.79841 37.8929 9.79669 38.0489C9.80012 38.2237 9.80526 38.3917 9.80869 38.5477C9.8224 38.8562 9.22935 39.9926 8.93968 40.673C8.70486 41.2095 8.72372 41.4443 8.73572 41.5438C8.77857 41.7117 8.86427 41.5969 8.99625 41.4186C9.13508 41.2421 9.29791 41.0073 9.52931 40.7742C9.96981 40.3045 10.4669 39.84 10.6983 39.792C11.0205 39.7235 11.425 39.6258 11.8741 39.4869C11.9581 39.4595 12.0455 39.4321 12.1329 39.4047H12.1312Z" fill="white"/>
<path d="M13.4713 50.5458C13.8466 50.2852 14.2409 49.9836 14.6265 49.6459C15.4218 48.9243 16.3525 48.0022 16.901 46.9361C17.1872 46.3927 17.3758 45.8442 17.4889 45.3077C17.5746 44.8021 17.6757 44.2982 17.734 43.8183C17.7872 43.3383 17.7923 42.8824 17.7717 42.4693C17.7666 42.3836 17.7614 42.2996 17.7563 42.2174C17.7237 41.7837 17.6637 41.4049 17.6055 41.1067C17.554 40.8924 17.5403 40.7193 17.5232 40.5993C17.2352 40.4588 17.0998 40.4828 16.9319 40.5153C16.721 40.5582 16.4605 40.6199 16.164 40.7022C16.0149 40.7467 15.8572 40.7947 15.6909 40.8444C15.5418 40.8924 15.3978 40.9439 15.247 41.0021C14.402 41.3295 13.4387 41.8317 12.6023 42.6064C12.16 43.0161 11.7504 43.5029 11.4144 44.0771C10.7014 45.2135 10.5626 46.5127 10.578 47.7125C10.5849 48.2713 10.6294 48.806 10.6946 49.2945C10.722 49.4728 10.7477 49.6442 10.7717 49.8087C10.794 49.9973 10.8642 50.1653 10.9088 50.3281C11.0082 50.6452 10.7305 52.0061 10.6294 52.8031C10.5489 53.4322 10.5711 53.691 10.6123 53.7921C10.686 53.9618 10.9362 53.3533 11.2448 52.7346C11.5533 52.1124 11.9235 51.4816 12.1412 51.3651C12.4446 51.2005 12.8216 50.9794 13.233 50.7052C13.3101 50.652 13.389 50.5989 13.4695 50.5441L13.4713 50.5458Z" fill="white"/>
<path d="M17.6257 61.1915C17.9103 60.8419 18.2068 60.4528 18.4913 60.0311C19.2009 58.9822 19.8557 57.7446 20.1299 56.43C20.2362 55.8027 20.3545 55.1496 20.3716 54.5429C20.4299 53.3893 20.1591 52.3712 19.9585 51.5108C19.9397 51.4216 19.9208 51.3342 19.902 51.2468C19.7974 50.796 19.6757 50.4087 19.5694 50.1087C19.4135 49.6768 19.2883 49.4231 19.2883 49.4231C19.0415 49.5362 18.913 49.5979 18.7536 49.6751C18.5547 49.7762 18.3096 49.9082 18.0337 50.0727C17.8966 50.1584 17.7509 50.251 17.5983 50.347C17.4663 50.4378 17.3292 50.5338 17.1869 50.6332C16.3951 51.2074 15.5158 52.0027 14.8147 53.0602C14.4188 53.6259 14.1908 54.2309 14.004 54.9217C13.824 55.6296 13.7589 56.3666 13.7709 57.0916C13.7829 57.8183 13.86 58.5382 14.0794 59.1724C14.2354 59.6901 14.4171 60.1786 14.6022 60.6225C14.6793 60.8007 14.7565 60.9721 14.8285 61.1384C14.9159 61.3218 14.9999 61.4966 15.0787 61.6612C15.161 61.8223 15.1953 62.2919 15.233 62.8336C15.3032 63.3598 15.3821 63.9545 15.4387 64.3796C15.5449 65.0618 15.6443 65.3292 15.7146 65.4217C15.838 65.5777 15.9066 64.8681 16.0317 64.1311C16.1551 63.3906 16.3368 62.6279 16.5202 62.4428C16.7773 62.1822 17.0738 61.8531 17.4286 61.4366C17.4938 61.3578 17.5606 61.2772 17.6275 61.1967L17.6257 61.1915Z" fill="white"/>
<path d="M25.1656 71.2305C25.3422 70.7763 25.517 70.2758 25.6713 69.7445C26.0432 68.4658 26.302 67.0226 26.1769 65.6103C26.1666 64.8767 26.0672 64.1945 25.9078 63.5671C25.757 62.9758 25.553 62.4342 25.3199 61.9423C25.0765 61.4572 24.9154 60.9498 24.6874 60.5436C24.6411 60.4579 24.5983 60.3739 24.5554 60.2917C24.3206 59.8632 24.0875 59.5049 23.8938 59.2324C23.6127 58.8382 23.4139 58.6171 23.4139 58.6171C23.2014 58.8005 23.0917 58.8999 22.9545 59.0233C22.7849 59.181 22.5792 59.3849 22.3546 59.63C22.2432 59.7569 22.125 59.8906 22.0015 60.0328C21.897 60.1631 21.7873 60.3002 21.6742 60.4408C21.0537 61.2498 20.4127 62.3142 20.027 63.5997C19.8385 64.2699 19.6551 65.0463 19.7031 65.7937C19.7785 67.3328 20.3081 68.8789 21.004 70.1507C21.3262 70.6512 21.6656 71.114 21.9964 71.527C22.1301 71.6882 22.2587 71.8441 22.3821 71.9932C22.5278 72.1578 22.6649 72.3138 22.7934 72.4595C22.9254 72.6017 23.1105 73.0748 23.3111 73.6284C23.5047 74.1889 23.7961 74.7494 23.9915 75.183C24.3172 75.8566 24.5023 76.1035 24.6034 76.1772C24.7148 76.2577 24.7765 76.3023 24.7765 76.3023C24.7765 76.3023 24.6137 75.5481 24.4989 74.7511C24.384 73.9489 24.312 73.1142 24.4423 72.8623C24.6189 72.5143 24.8314 72.0618 25.0474 71.5339C25.0868 71.4345 25.1279 71.3316 25.1691 71.2271L25.1656 71.2305Z" fill="white"/>
<path d="M35.918 79.6532C35.9985 79.0876 36.0602 78.4345 36.0242 77.7438C35.9831 76.993 35.882 76.16 35.606 75.2979C35.4672 74.8677 35.2958 74.4237 35.085 73.9712C34.9478 73.7261 34.9478 73.565 34.8861 73.3713C34.8364 73.1845 34.7799 72.9994 34.7199 72.816C34.4748 72.0738 34.1577 71.4105 33.7995 70.8209C33.0796 69.7582 32.3854 68.752 31.6998 68.0373C31.6278 67.9636 31.5592 67.8916 31.4907 67.8213C31.1256 67.4562 30.7811 67.1614 30.5034 66.942C30.1383 66.589 29.9052 66.3918 29.9052 66.3918C29.7424 66.6438 29.6601 66.7775 29.5555 66.9455C29.4304 67.1597 29.2779 67.4305 29.1185 67.7528C29.0413 67.9173 28.9591 68.0922 28.8717 68.2773C28.7997 68.4401 28.7191 68.6218 28.6574 68.7949C28.2889 69.7907 27.9787 71.0523 27.9958 72.4715C28.0044 73.2222 28.1055 74.0175 28.3335 74.8351C28.8271 76.4017 29.8641 77.7129 30.8993 78.8408C31.3518 79.3464 31.962 79.8435 32.4642 80.2565C32.6493 80.4142 32.8276 80.5685 33.0007 80.7142C33.1995 80.8736 33.3881 81.0261 33.5646 81.1684C33.9246 81.4529 34.7542 83.1721 35.1844 84.1131C35.5203 84.8758 35.6986 85.1483 35.8031 85.2375C35.9163 85.3334 35.978 85.3849 35.978 85.3849C35.978 85.3849 35.846 84.5621 35.7003 83.664C35.546 82.7761 35.3746 81.794 35.4706 81.5078C35.6043 81.117 35.7466 80.613 35.858 80.0046C35.8768 79.8897 35.8957 79.7715 35.9163 79.6498L35.918 79.6532Z" fill="white"/>
<path d="M15.0548 11.3051C14.3195 10.4258 13.5962 9.15227 13.7453 7.65594C13.7967 7.13831 13.9475 6.63096 14.1601 6.14932C14.5509 5.2306 15.2965 4.51757 15.9204 3.91767C15.9855 3.85939 16.0523 3.7994 16.1175 3.74112C16.462 3.43946 16.7842 3.19092 17.0448 3.00238C17.4201 2.73157 17.6669 2.58588 17.6669 2.58588C17.8144 2.74699 17.8898 2.83441 17.9823 2.94068C18.0955 3.0778 18.2326 3.25091 18.38 3.45488C18.452 3.55944 18.5291 3.67085 18.6079 3.78569C18.6748 3.89196 18.7433 3.99994 18.8136 4.11307C19.1993 4.75754 19.5729 5.55798 19.7306 6.41328C19.8146 6.86749 19.8386 7.33713 19.7718 7.8102C19.6809 8.49923 19.3775 9.10428 19.0399 9.68705C18.7228 10.2852 18.3183 10.8166 17.9206 11.2605C17.8264 11.3616 17.7338 11.4593 17.6464 11.5553C17.5418 11.6582 17.4424 11.7576 17.3481 11.8519C17.1562 12.0353 16.9522 12.9985 16.8014 13.5213C16.6711 13.9327 16.5974 14.1006 16.5374 14.1589C16.4329 14.2549 16.3403 13.7938 16.2735 13.3293C16.1929 12.858 16.0815 12.3438 15.9306 12.2084C15.7198 12.0215 15.4644 11.7747 15.2022 11.4782C15.1525 11.4199 15.1028 11.3616 15.0531 11.3051H15.0548Z" fill="white"/>
<path d="M10.0668 19.8889C9.15491 19.0918 8.17792 17.8629 8.03223 16.2123C7.99109 15.6467 8.00823 15.0485 8.1882 14.5171C8.49158 13.4939 9.03493 12.5306 9.56284 11.7644C9.61769 11.6873 9.67083 11.6102 9.72567 11.533C10.0119 11.1354 10.2862 10.7994 10.5107 10.5423C10.6718 10.3572 10.8072 10.2098 10.9032 10.1138C11.0095 10.023 11.0677 9.97327 11.0677 9.97327C11.2426 10.1172 11.3317 10.1944 11.4431 10.2904C11.5802 10.4138 11.7448 10.5715 11.9248 10.76C12.0156 10.8577 12.1099 10.9623 12.211 11.0702C12.2967 11.1714 12.3858 11.2759 12.4767 11.3822C12.9806 11.9992 13.5017 12.7877 13.8239 13.6807C13.9953 14.1538 14.1084 14.6577 14.1341 15.1822C14.2044 16.6991 13.4725 18.1011 12.9155 19.253C12.8418 19.3815 12.7715 19.5066 12.7029 19.6266C12.6206 19.7586 12.5418 19.8871 12.4664 20.0071C12.3138 20.2454 12.3087 21.3218 12.2676 21.9131C12.235 22.3845 12.1647 22.5661 12.1184 22.6416C12.0345 22.7667 11.9916 22.6501 11.9248 22.4702C11.8665 22.297 11.7859 22.0605 11.7019 21.8137C11.5237 21.3235 11.3077 20.7939 11.1295 20.679C10.8809 20.5213 10.5758 20.3088 10.2553 20.0431C10.1936 19.9917 10.1319 19.9386 10.0719 19.8871L10.0668 19.8889Z" fill="white"/>
<path d="M6.57906 30.2141C5.48551 29.5457 4.23257 28.4247 3.72693 26.6695C3.56067 26.0662 3.45955 25.42 3.49554 24.7961C3.58467 23.6237 3.92747 22.4651 4.2977 21.5223C4.33712 21.4246 4.37654 21.3304 4.41254 21.2361C4.61651 20.7442 4.82219 20.3225 4.99359 19.9969C5.10843 19.7586 5.24212 19.5838 5.32782 19.4604C5.41524 19.3404 5.46495 19.2736 5.46495 19.2736C5.66891 19.3935 5.77347 19.4604 5.90202 19.5409C6.06314 19.6472 6.26025 19.7861 6.47793 19.954C6.58591 20.0414 6.69904 20.134 6.81902 20.23C6.92186 20.3191 7.02813 20.4134 7.13783 20.5094C7.7583 21.0733 8.45248 21.8257 8.96154 22.7273C9.23235 23.2055 9.45346 23.7266 9.59058 24.2888C9.7877 25.1012 9.78941 25.9274 9.678 26.7107C9.61801 27.5094 9.48603 28.279 9.29749 28.9423C9.25292 29.0949 9.20836 29.244 9.16722 29.3863C9.11409 29.5457 9.06267 29.6999 9.01467 29.8422C8.92555 30.1319 9.12266 31.2802 9.26663 31.9299C9.3849 32.4492 9.38319 32.6635 9.35062 32.7526C9.29406 32.9034 9.01467 32.4424 8.6873 31.9453C8.34107 31.4482 8.03083 30.9306 7.81829 30.8432C7.53376 30.7249 7.17896 30.5604 6.79674 30.3427C6.72303 30.2998 6.65105 30.2553 6.57734 30.2124L6.57906 30.2141Z" fill="white"/>
<path d="M5.39093 42.238C4.73618 41.998 4.00429 41.6483 3.30497 41.1341C2.63308 40.6199 2.03317 39.9395 1.5721 39.055C1.25501 38.4414 1.0339 37.7729 0.884782 37.0908C0.559119 35.7984 0.673958 34.482 0.83679 33.3885C0.85393 33.2754 0.872784 33.164 0.889924 33.056C0.985909 32.4835 1.09903 31.9847 1.20016 31.5973C1.34414 31.0369 1.46069 30.7061 1.46069 30.7061C1.69551 30.7952 1.81892 30.8449 1.96975 30.9066C2.16001 30.9889 2.39312 31.0986 2.65708 31.2357C2.78905 31.3077 2.9296 31.3848 3.0753 31.4654C3.20385 31.5425 3.33583 31.6213 3.47295 31.7036C4.23911 32.1835 5.09955 32.8469 5.82115 33.7073C6.20338 34.1632 6.54447 34.6757 6.81185 35.2499C7.16323 36.0778 7.45804 36.9674 7.60544 37.8364C7.75285 38.7037 7.77856 39.5521 7.7477 40.2994C7.73742 40.4725 7.72714 40.6405 7.71685 40.8016C7.69628 40.9833 7.70314 41.1581 7.698 41.321C7.69114 41.6483 8.31162 42.8242 8.615 43.4823C8.85667 44.0068 8.90467 44.2348 8.89267 44.3359C8.87039 44.509 8.47959 44.0805 8.0288 43.6246C7.57802 43.1721 7.06895 42.6887 6.83585 42.6425C6.51361 42.5773 6.10568 42.4796 5.65146 42.3288C5.56576 42.2997 5.47835 42.2688 5.38922 42.238H5.39093Z" fill="white"/>
<path d="M7.24078 55.0691C5.79415 54.8531 3.92759 54.2138 2.41754 52.5529C1.8742 51.9838 1.49026 51.3188 1.18345 50.6212C0.59211 49.3083 0.254449 47.8942 0.0676213 46.703C0.0436251 46.5795 0.0384831 46.4579 0.031627 46.3379C-0.00436737 45.7054 -0.00436737 45.1501 0.00591673 44.713C0.0213429 44.0839 0.0641933 43.7051 0.0641933 43.7051C0.32301 43.7514 0.460131 43.7788 0.628105 43.8148C0.840643 43.8628 1.10289 43.9314 1.40284 44.0222C1.55367 44.0719 1.71308 44.1251 1.88105 44.1799C2.02846 44.2348 2.181 44.2913 2.34041 44.3513C3.22827 44.7027 4.25668 45.2272 5.18739 45.9899C5.71702 46.3893 6.23123 46.8555 6.68887 47.4023C7.35048 48.1924 7.83383 49.0786 8.18692 49.9664C8.53315 50.856 8.90852 51.7199 9.10563 52.5066C9.15362 52.6883 9.19819 52.8648 9.24275 53.0345C9.2856 53.2282 9.32674 53.4116 9.36616 53.5847C9.43815 53.9344 10.3243 55.0468 10.8968 55.6398C11.3201 56.1232 11.4453 56.346 11.4675 56.4523C11.5018 56.634 10.9499 56.2946 10.3449 55.9209C9.73639 55.5559 9.04221 55.1788 8.80568 55.1771C8.46116 55.1805 8.02409 55.1668 7.52702 55.1068C7.43275 55.0948 7.33677 55.0811 7.23907 55.0674L7.24078 55.0691Z" fill="white"/>
<path d="M12.4171 67.3346C11.6235 67.3911 10.6894 67.3637 9.68498 67.1529C9.18278 67.0466 8.66343 66.8941 8.13723 66.6832C7.62816 66.4638 7.14138 66.169 6.64946 65.8091C5.97242 65.3103 5.35538 64.707 4.80518 64.0591C3.71506 62.8541 3.05688 61.4058 2.57524 60.1751C2.52554 60.0466 2.47926 59.9214 2.43126 59.7997C2.18959 59.1501 2.00962 58.5708 1.87935 58.1149C1.67881 57.4618 1.64453 57.0436 1.64453 57.0436C1.92049 57.0402 2.06618 57.0436 2.24615 57.047C2.47583 57.0556 2.7535 57.0779 3.09116 57.1122C3.26256 57.1327 3.44253 57.155 3.6345 57.1773C3.80419 57.2047 3.98074 57.2321 4.16242 57.2613C5.19255 57.4447 6.4215 57.7738 7.63331 58.3668C8.27435 58.6805 8.91025 59.0678 9.51015 59.5512C10.3535 60.2591 11.2242 61.027 11.8635 61.8651C12.5457 62.6827 13.0102 63.5774 13.5141 64.311C13.6238 64.4841 13.7301 64.6521 13.8329 64.8132C13.9426 64.9983 14.0472 65.1749 14.1449 65.3412C14.3351 65.6771 15.6515 66.5804 16.3422 67.0997C16.8856 67.5214 17.1358 67.6825 17.1804 67.7939C17.2764 67.967 17.105 67.9139 16.8393 67.8333C16.5753 67.7511 16.1982 67.6516 15.852 67.5214C15.1373 67.2746 14.3454 67.0226 14.0883 67.0826C13.7301 67.1666 13.269 67.2557 12.7291 67.3106C12.6262 67.3191 12.5217 67.3294 12.4154 67.338L12.4171 67.3346Z" fill="white"/>
<path d="M21.6142 78.8905C20.0116 79.4338 17.6428 79.8435 15.1781 78.8596C14.3125 78.5357 13.476 78.09 12.6927 77.5793C11.2341 76.5988 10.1166 75.2688 9.19957 74.1581C9.10702 74.0398 9.01789 73.925 8.93047 73.8136C8.70079 73.5136 8.49168 73.2291 8.30657 72.9651C8.13517 72.6926 7.99633 72.4321 7.87121 72.2075C7.51641 71.5545 7.33301 71.1448 7.33301 71.1448C7.61753 71.0763 7.76665 71.0454 7.9552 71.0043C8.19344 70.9597 8.4934 70.9117 8.84306 70.8706C9.02131 70.8535 9.20986 70.8363 9.40697 70.8158C9.58523 70.8055 9.76863 70.7952 9.9606 70.7849C10.5091 70.7609 11.0918 70.7798 11.7552 70.8158C12.4202 70.8517 13.1264 70.9323 13.8497 71.078C14.6142 71.234 15.3975 71.4619 16.1756 71.7962C16.7395 72.0344 17.2623 72.3258 17.7731 72.6326C18.3147 72.9137 18.8238 73.2239 19.302 73.5496C20.2584 74.2009 21.088 74.9191 21.7702 75.5859C21.9416 75.7281 22.1061 75.867 22.2638 75.9972C22.4386 76.1515 22.6032 76.2972 22.7592 76.4343C23.0677 76.7154 24.7251 77.2485 25.6113 77.5707C26.3089 77.8398 26.5848 77.9701 26.6843 78.0472C26.7854 78.1397 26.8419 78.1895 26.8419 78.1895C26.8145 78.2649 23.7893 77.9323 23.2699 78.1757C22.9271 78.3574 22.4763 78.5734 21.9347 78.7756C21.8319 78.8116 21.7256 78.8493 21.6176 78.8888L21.6142 78.8905Z" fill="white"/>
<path d="M32.3446 87.757C30.7334 88.3398 28.5618 88.926 26.5187 88.9997C26.1724 89.0014 25.8365 89.0049 25.5074 89.0066C25.348 89.0031 25.192 88.9929 25.0412 88.9809C24.9829 88.9877 24.8561 88.9414 24.7361 88.8986C24.6178 88.8557 24.5013 88.8129 24.383 88.77C22.6124 88.1067 20.9704 87.1606 19.6763 86.2881C19.5375 86.2024 19.4226 86.0945 19.3009 85.9985C18.6719 85.4774 18.144 84.9941 17.7412 84.6084C17.1601 84.0496 16.8379 83.6914 16.8379 83.6914C17.1138 83.5508 17.2613 83.4806 17.4447 83.3914C17.6795 83.2852 17.9794 83.1601 18.3325 83.0281C18.5125 82.9647 18.7045 82.8978 18.9067 82.8275C19.0884 82.771 19.2787 82.7127 19.4758 82.651C20.6087 82.3133 21.9782 82.0768 23.5654 81.9911C24.4156 81.9345 25.3086 81.9448 26.2273 82.0597C28.9474 82.4762 31.1088 83.292 32.6651 84.4901C32.8451 84.6187 33.0079 84.7592 33.1673 84.8895C33.3439 85.042 33.5101 85.186 33.6678 85.3214C33.9729 85.5854 35.6578 86.1819 36.5782 86.6549C37.3118 87.0149 37.5569 87.2411 37.6392 87.3474C37.7232 87.4691 37.7695 87.5359 37.7695 87.5359C37.7695 87.5359 36.9724 87.3011 36.1103 87.1537C35.2361 87.0097 34.3363 86.9257 34.0638 87.056C33.6935 87.2257 33.217 87.4297 32.6668 87.6371C32.5623 87.6765 32.456 87.7142 32.3463 87.7553L32.3446 87.757Z" fill="white"/>
</svg>
