<svg width="91" height="79" viewBox="0 0 91 79" fill="none" xmlns="http://www.w3.org/2000/svg">
<path d="M45.5 47.9106L11.5913 77.3479C10.3226 78.4493 8.70786 79 6.74715 79C4.78644 79 3.17173 78.4493 1.90304 77.3479C0.634345 76.2465 0 74.8447 0 73.1426C0 71.4404 0.634345 70.0386 1.90304 68.9373L35.8118 39.5L1.90304 10.0627C0.634345 8.96134 0 7.55957 0 5.85741C0 4.15526 0.634345 2.75348 1.90304 1.65209C3.17173 0.550695 4.78644 0 6.74715 0C8.70786 0 10.3226 0.550695 11.5913 1.65209L45.5 31.0894L79.4087 1.65209C80.6774 0.550695 82.2921 0 84.2528 0C86.2136 0 87.8283 0.550695 89.0969 1.65209C90.3656 2.75348 91 4.15526 91 5.85741C91 7.55957 90.3656 8.96134 89.0969 10.0627L55.1882 39.5L89.0969 68.9373C90.3656 70.0386 91 71.4404 91 73.1426C91 74.8447 90.3656 76.2465 89.0969 77.3479C87.8283 78.4493 86.2136 79 84.2528 79C82.2921 79 80.6774 78.4493 79.4087 77.3479L45.5 47.9106Z" fill="white"/>
</svg>
