<svg width="159" height="30" viewBox="0 0 159 30" fill="none" xmlns="http://www.w3.org/2000/svg">
<path d="M150.762 12.9187C149.872 14.1776 148.805 15.1697 147.56 15.8949C146.315 16.6065 144.987 16.9691 143.578 16.9827V14.0271C144.563 14.0271 145.507 13.7192 146.41 13.1035C147.313 12.4877 148.073 11.6393 148.689 10.5583C149.304 9.47735 149.701 8.24583 149.879 6.8638L152.896 7.3564C152.746 8.49214 152.472 9.53208 152.075 10.4762L158.459 14.5402L156.899 17.0648L150.762 12.9187ZM158.438 19.22V22.1346H143.27V19.22H158.438Z" fill="white"/>
<path d="M142.451 22.6888H139.475V6.92537H142.451V22.6888ZM135.226 7.33588C135.226 9.56629 135.028 11.6599 134.631 13.6166L139.085 20.1231L136.663 21.9293L133.584 17.2291C132.941 18.7479 132.148 19.911 131.203 20.7183C130.273 21.5257 129.233 21.9362 128.083 21.9499V18.7479C128.877 18.6521 129.582 18.1048 130.198 17.1059C130.827 16.107 131.313 14.7592 131.655 13.0624C132.011 11.352 132.189 9.40893 132.189 7.23325L135.226 7.33588Z" fill="white"/>
<path d="M127.531 22.6888H124.761V6.92537H127.531V22.6888ZM123.734 6.98695V22.4219H120.984V15.0944H117.967V12.1593H120.984V6.98695H123.734ZM116.776 19.1995C117.378 19.1995 117.994 19.1516 118.624 19.0558C119.267 18.96 119.814 18.83 120.266 18.6658V21.3752C119.841 21.5667 119.273 21.7104 118.562 21.8062C117.864 21.902 117.173 21.9499 116.489 21.9499H112.897V7.25378H115.771V19.1995H116.776Z" fill="white"/>
<path d="M112.201 22.6888H109.43V6.92537H112.201V22.6888ZM108.404 6.98695V22.4219H105.654V15.4639H103.745V12.5288H105.654V6.98695H108.404ZM102.595 10.1068C102.582 11.4478 102.506 12.7409 102.37 13.9861L105.797 20.3489L103.457 21.7241L101.507 18.0295C101.07 19.2884 100.495 20.2531 99.7834 20.9236C99.0718 21.5804 98.2371 21.9225 97.2793 21.9499V18.9121C98.0319 18.8027 98.6271 17.968 99.065 16.408C99.5166 14.8481 99.756 12.7477 99.7834 10.1068H97.5872V7.29483H104.689V10.1068H102.595Z" fill="white"/>
<path d="M90.3492 18.6042V6.92537H93.3254V18.6042H90.3492ZM83.699 6.9459C84.6706 6.9459 85.5258 7.14431 86.2647 7.54113C87.0173 7.92427 87.5988 8.47161 88.0093 9.18315C88.4198 9.89469 88.6251 10.7225 88.6251 11.6667C88.6251 12.6109 88.4198 13.4387 88.0093 14.1503C87.5988 14.8618 87.0173 15.416 86.2647 15.8128C85.5258 16.1959 84.6706 16.3875 83.699 16.3875C82.7275 16.3875 81.8654 16.1959 81.1128 15.8128C80.3739 15.416 79.7924 14.8618 79.3682 14.1503C78.9577 13.4387 78.7524 12.6109 78.7524 11.6667C78.7524 10.7225 78.9577 9.89469 79.3682 9.18315C79.7924 8.47161 80.3739 7.92427 81.1128 7.54113C81.8654 7.14431 82.7275 6.9459 83.699 6.9459ZM83.699 9.55261C83.1106 9.55261 82.6317 9.73733 82.2623 10.1068C81.9065 10.4762 81.7286 10.9962 81.7286 11.6667C81.7286 12.3372 81.9065 12.864 82.2623 13.2472C82.6317 13.6166 83.1106 13.8013 83.699 13.8013C84.2874 13.8013 84.7663 13.6166 85.1358 13.2472C85.5053 12.864 85.69 12.3372 85.69 11.6667C85.69 10.9962 85.5053 10.4762 85.1358 10.1068C84.7663 9.73733 84.2874 9.55261 83.699 9.55261ZM93.5306 19.8973V22.6888H80.0866V17.1675H83.1038V19.8973H93.5306Z" fill="white"/>
<path d="M78.0564 15.3407H75.1008V12.4877H73.0688V15.0534H63.9146V7.1101H66.7881V8.6495H70.1748V7.1101H73.0688V9.55261H75.1008V6.92537H78.0564V15.3407ZM70.1748 11.0304H66.7881V12.6109H70.1748V11.0304ZM78.0564 15.8949V22.6888H64.6535V15.8949H67.568V16.8596H75.1419V15.8949H78.0564ZM75.1419 19.22H67.568V20.2668H75.1419V19.22Z" fill="white"/>
<path d="M49.0359 15.3202V7.1101H62.4594V15.3202H49.0359ZM51.971 9.96311V12.4877H59.5038V9.96311H51.971ZM57.2665 19.5279V23.0582H54.2288V19.5279H48.1533V16.6338H63.3215V19.5279H57.2665Z" fill="white"/>
<path d="M47.3963 15.3407H44.4407V12.4877H42.4087V15.0534H33.2544V7.1101H36.1279V8.6495H39.5146V7.1101H42.4087V9.55261H44.4407V6.92537H47.3963V15.3407ZM39.5146 11.0304H36.1279V12.6109H39.5146V11.0304ZM47.3963 15.8949V22.6888H33.9933V15.8949H36.9079V16.8596H44.4817V15.8949H47.3963ZM44.4817 19.22H36.9079V20.2668H44.4817V19.22Z" fill="white"/>
<path d="M25.9805 7.5V22.5L12.9902 30L0 22.5V7.5L12.9902 0L25.9805 7.5ZM13.5293 4.68359C8.08675 4.6838 3.77848 8.53872 3.77832 15.2568C3.77832 21.7486 7.74715 25.7744 13.6152 25.7744C18.8594 25.7742 22.6299 22.4857 22.6299 17.0146V14.3213H13.8418V17.8652H17.9805C17.9238 20.0905 16.3789 21.5223 13.6436 21.5225C10.5253 21.5225 8.71094 19.2256 8.71094 15.2002C8.71104 11.2033 10.6387 8.93555 13.6436 8.93555C15.6561 8.93568 17.0445 9.92811 17.5264 11.6572H22.4307C21.9204 7.57508 18.2634 4.68359 13.5293 4.68359Z" fill="white"/>
</svg>
